<?xml version="1.0" encoding="UTF-8" standalone="no"?>
<!-- Created with Inkscape (http://www.inkscape.org/) -->

<svg
   xmlns:dc="http://purl.org/dc/elements/1.1/"
   xmlns:cc="http://creativecommons.org/ns#"
   xmlns:rdf="http://www.w3.org/1999/02/22-rdf-syntax-ns#"
   xmlns:svg="http://www.w3.org/2000/svg"
   xmlns="http://www.w3.org/2000/svg"
   xmlns:sodipodi="http://sodipodi.sourceforge.net/DTD/sodipodi-0.dtd"
   xmlns:inkscape="http://www.inkscape.org/namespaces/inkscape"
   width="32px"
   height="32px"
   id="svg2987"
   version="1.1"
   inkscape:version="0.48.4 r9939"
   sodipodi:docname="twitterlogo.svg">
  <defs
     id="defs2989" />
  <sodipodi:namedview
     id="base"
     pagecolor="#ffffff"
     bordercolor="#666666"
     borderopacity="1.0"
     inkscape:pageopacity="0.0"
     inkscape:pageshadow="2"
     inkscape:zoom="11.197802"
     inkscape:cx="5.3282628"
     inkscape:cy="16"
     inkscape:current-layer="layer1"
     showgrid="true"
     inkscape:grid-bbox="true"
     inkscape:document-units="px"
     inkscape:window-width="1389"
     inkscape:window-height="682"
     inkscape:window-x="225"
     inkscape:window-y="225"
     inkscape:window-maximized="0" />
  <metadata
     id="metadata2992">
    <rdf:RDF>
      <cc:Work
         rdf:about="">
        <dc:format>image/svg+xml</dc:format>
        <dc:type
           rdf:resource="http://purl.org/dc/dcmitype/StillImage" />
      </cc:Work>
    </rdf:RDF>
  </metadata>
  <g
     id="layer1"
     inkscape:label="Layer 1"
     inkscape:groupmode="layer">
    <path
       style="fill:#00aced;fill-opacity:1;stroke:none"
       inkscape:connector-curvature="0"
       d="M 18.137349,9.5562014 C 16.70256,10.072725 15.795774,11.40421 15.899079,12.861954 l 0.03443,0.562438 -0.573915,-0.06886 C 13.270543,13.09152 11.445493,12.196211 9.8959221,10.692554 L 9.1383537,9.9464645 8.9432225,10.497422 c -0.4132189,1.228179 -0.1492173,2.525228 0.7116551,3.39758 0.4591324,0.482088 0.3558274,0.550958 -0.4361757,0.263999 -0.2754794,-0.09183 -0.5165237,-0.160692 -0.5394804,-0.126259 -0.080348,0.08034 0.1951312,1.124874 0.4132191,1.538093 0.2984359,0.573915 0.9067858,1.136353 1.5725274,1.469222 l 0.562437,0.264001 -0.665742,0.01152 c -0.6427845,0 -0.6657409,0.01152 -0.5968714,0.252524 0.2295664,0.746088 1.1363524,1.538091 2.1464434,1.882441 l 0.711655,0.241039 -0.619829,0.367306 c -0.918264,0.528002 -1.997225,0.82644 -3.0761855,0.849394 -0.5165238,0.01152 -0.9412211,0.0574 -0.9412211,0.09183 0,0.114777 1.4003533,0.757569 2.2153126,1.010091 2.44488,0.74609 5.348891,0.424698 7.529769,-0.849394 1.549572,-0.906786 3.099142,-2.708881 3.822274,-4.453582 0.390264,-0.929743 0.780525,-2.628532 0.780525,-3.443491 0,-0.528003 0.03444,-0.596873 0.677221,-1.22818 0.378784,-0.367304 0.734611,-0.769046 0.803481,-0.88383 0.114777,-0.218087 0.103311,-0.218087 -0.48209,-0.02295 -0.975655,0.344348 -1.113395,0.298435 -0.631306,-0.218088 0.355828,-0.367306 0.780526,-1.033048 0.780526,-1.2281796 0,-0.034432 -0.172176,0.022969 -0.367306,0.1262601 -0.20661,0.1147748 -0.665743,0.2869555 -1.010091,0.3902605 l -0.61983,0.195126 -0.562436,-0.378784 C 20.811789,9.8087606 20.375615,9.5791956 20.146048,9.5103259 19.560655,9.349635 18.665349,9.3725829 18.137346,9.5562378 z"
       id="path2991" />
    <path
       style="fill:#37abc8;fill-opacity:1;stroke:none"
       d="M 14.958708,30.655077 C 11.112551,30.344498 7.9636703,29.104089 5.2395232,26.826493 1.8460177,23.98926 -0.01072914,20.088929 -0.00796344,15.803479 -0.00323364,8.4627349 5.6716323,2.3173925 13.536482,1.1361101 c 1.914401,-0.28753763 4.576297,-0.15234879 6.511897,0.330724 3.200232,0.7986885 6.421423,2.7516185 8.340879,5.056876 2.369812,2.8461338 3.500811,5.8454309 3.499964,9.2815649 -9.62e-4,3.913191 -1.434191,7.284348 -4.315148,10.149831 -2.488257,2.474896 -5.715594,4.057222 -9.297759,4.558583 -0.766172,0.107226 -2.713062,0.190209 -3.317607,0.141397 l 0,0 z m 2.50357,-2.192726 c 1.847068,-0.202219 3.21461,-0.578214 4.778618,-1.313827 5.696845,-2.679433 8.649684,-8.577397 7.161642,-14.304565 C 28.00804,7.4768283 23.005691,3.561969 17.016668,3.1507204 9.8204472,2.6565783 3.5394712,7.1477988 2.2837153,13.685537 c -0.2094224,1.090299 -0.208087,3.156011 0.00275,4.254153 0.1980846,1.031719 0.6324581,2.340817 1.0559456,3.182361 2.5117072,4.991221 8.2637451,7.981454 14.1198671,7.3403 l 0,0 z"
       id="path5472"
       inkscape:connector-curvature="0" />
    <path
       style="fill:#ffffff;fill-opacity:1;stroke:#000000;stroke-width:0.08930324;stroke-opacity:0"
       d="M 14.07998,28.388345 C 8.7933214,27.718038 4.2390773,24.129796 2.7543067,19.464966 2.2750153,17.959135 2.2471949,17.755111 2.2489482,15.758881 2.2504922,14.001002 2.2656044,13.829493 2.4901694,13.021239 2.8318476,11.791471 3.2018037,10.876845 3.7308304,9.95401 5.7567973,6.4199091 9.3540372,4.0280418 13.678116,3.3398873 14.720592,3.1739828 16.838673,3.1542522 17.933185,3.30025 c 4.50821,0.601354 8.505022,3.296906 10.412228,7.022273 0.50917,0.994569 0.902014,2.060949 1.147339,3.114474 0.234771,1.008207 0.239273,3.608811 0.0081,4.68842 -0.919595,4.294921 -3.973577,7.729924 -8.388369,9.434919 -1.990471,0.76872 -4.847278,1.105081 -7.032519,0.828009 l -1e-6,0 z m 0.825179,-6.108778 c 1.364781,-0.237998 2.741035,-0.81801 3.819575,-1.609731 0.650373,-0.477418 1.747146,-1.676349 2.276713,-2.488775 0.825484,-1.266405 1.375855,-2.91195 1.550623,-4.636182 0.08737,-0.861962 0.153795,-0.983203 0.987224,-1.801848 0.513775,-0.504662 0.663929,-0.761873 0.444765,-0.761873 -0.05384,0 -0.315846,0.06336 -0.582242,0.140806 -0.266397,0.07744 -0.526766,0.126671 -0.578598,0.109394 -0.05183,-0.01728 0.06402,-0.23134 0.257441,-0.475694 0.382896,-0.483715 0.683179,-1.0154105 0.613066,-1.0855236 -0.0243,-0.024296 -0.410131,0.1005393 -0.85741,0.2774114 -0.447281,0.1768722 -0.902556,0.3276812 -1.011725,0.3351322 -0.109168,0.0075 -0.459699,-0.151289 -0.778958,-0.3527563 -0.738993,-0.4663386 -1.251986,-0.5938724 -2.143112,-0.5327932 -0.561069,0.038456 -0.809016,0.1057223 -1.243692,0.337402 -1.114644,0.5940985 -1.712612,1.5608725 -1.776407,2.8720295 l -0.03781,0.777029 -0.279522,-0.04631 C 12.988273,12.910337 11.410196,12.133051 9.7960046,10.495701 9.4781645,10.173301 9.1884273,9.909519 9.1521444,9.909519 c -0.036283,0 -0.1479567,0.265445 -0.2481638,0.589878 -0.3642144,1.179189 -0.1588325,2.322939 0.5877739,3.27325 0.3101962,0.39483 0.3790316,0.529272 0.2524492,0.493058 -0.8051351,-0.230342 -1.0248726,-0.275549 -1.0785329,-0.22189 -0.091647,0.09165 0.1181329,0.935874 0.3595999,1.447157 0.2520293,0.533647 0.8311517,1.133651 1.4201903,1.471397 l 0.428777,0.245855 -0.28366,0.05673 c -0.156013,0.0312 -0.383459,0.05673 -0.505436,0.05673 -0.1972953,0 -0.2149786,0.02708 -0.1601952,0.245359 0.088505,0.352634 0.6498932,1.054854 1.0705232,1.339078 0.415559,0.280798 1.369067,0.729921 1.566355,0.737787 0.189435,0.0076 -0.09443,0.216304 -0.74626,0.548788 -0.693773,0.353879 -1.674354,0.596318 -2.7049017,0.668758 -0.4627737,0.03253 -0.8614276,0.09154 -0.8858975,0.131132 -0.1522659,0.246371 2.2635352,1.184909 3.4886782,1.35535 0.665051,0.09252 2.493718,0.05335 3.191715,-0.06837 l 0,0 z"
       id="path3024"
       inkscape:connector-curvature="0" />
  </g>
</svg>
