<?xml version="1.0" encoding="UTF-8" standalone="no"?>
<!-- Created with Inkscape (http://www.inkscape.org/) -->

<svg
   xmlns:dc="http://purl.org/dc/elements/1.1/"
   xmlns:cc="http://creativecommons.org/ns#"
   xmlns:rdf="http://www.w3.org/1999/02/22-rdf-syntax-ns#"
   xmlns:svg="http://www.w3.org/2000/svg"
   xmlns="http://www.w3.org/2000/svg"
   xmlns:sodipodi="http://sodipodi.sourceforge.net/DTD/sodipodi-0.dtd"
   xmlns:inkscape="http://www.inkscape.org/namespaces/inkscape"
   width="40"
   height="40"
   id="svg2"
   version="1.1"
   inkscape:version="0.48.4 r9939"
   sodipodi:docname="twitter_mapMarker_yellow.svg">
  <defs
     id="defs4" />
  <sodipodi:namedview
     id="base"
     pagecolor="#ffffff"
     bordercolor="#666666"
     borderopacity="1.0"
     inkscape:pageopacity="0.0"
     inkscape:pageshadow="2"
     inkscape:zoom="11.2"
     inkscape:cx="7.2056772"
     inkscape:cy="20.187921"
     inkscape:document-units="px"
     inkscape:current-layer="layer1"
     showgrid="false"
     inkscape:window-width="1505"
     inkscape:window-height="830"
     inkscape:window-x="342"
     inkscape:window-y="89"
     inkscape:window-maximized="0"
     fit-margin-top="0"
     fit-margin-left="0"
     fit-margin-right="0"
     fit-margin-bottom="0" />
  <metadata
     id="metadata7">
    <rdf:RDF>
      <cc:Work
         rdf:about="">
        <dc:format>image/svg+xml</dc:format>
        <dc:type
           rdf:resource="http://purl.org/dc/dcmitype/StillImage" />
        <dc:title></dc:title>
      </cc:Work>
    </rdf:RDF>
  </metadata>
  <g
     inkscape:label="Layer 1"
     inkscape:groupmode="layer"
     id="layer1"
     transform="translate(-282.07284,-497.45254)">
    <g
       id="g3936"
       transform="matrix(0.26797315,0,0,0.26797315,203.4712,393.49013)">
      <path
         transform="matrix(7.3225808,0,0,7.3225808,97.109026,283.70132)"
         d="m 44.951786,23.168882 c 0,4.323662 -3.50502,7.828682 -7.828682,7.828682 -4.323662,0 -7.828682,-3.50502 -7.828682,-7.828682 0,-4.323661 3.50502,-7.828682 7.828682,-7.828682 4.323662,0 7.828682,3.505021 7.828682,7.828682 z"
         sodipodi:ry="7.8286819"
         sodipodi:rx="7.8286819"
         sodipodi:cy="23.168882"
         sodipodi:cx="37.123104"
         id="path3012"
         style="fill:#37abc8;fill-opacity:1;stroke:none"
         sodipodi:type="arc" />
      <path
         transform="matrix(5.8184704,0,0,5.8869001,152.9896,316.89047)"
         d="m 44.951786,23.168882 c 0,4.323662 -3.50502,7.828682 -7.828682,7.828682 -4.323662,0 -7.828682,-3.50502 -7.828682,-7.828682 0,-4.323661 3.50502,-7.828682 7.828682,-7.828682 4.323662,0 7.828682,3.505021 7.828682,7.828682 z"
         sodipodi:ry="7.8286819"
         sodipodi:rx="7.8286819"
         sodipodi:cy="23.168882"
         sodipodi:cx="37.123104"
         id="path3012-1"
         style="fill:#ffffff;fill-opacity:1;stroke:none"
         sodipodi:type="arc" />
      <g
         style="fill:#00aced;fill-opacity:1;stroke:none"
         transform="matrix(0.0427048,0,0,-0.04293152,341.24479,477.58776)"
         id="g2989">
        <path
           style="fill:#00aced;fill-opacity:1"
           inkscape:connector-curvature="0"
           d="M 877,1126 C 752,1081 673,965 682,838 l 3,-49 -50,6 C 453,818 294,896 159,1027 l -66,65 -17,-48 C 40,937 63,824 138,748 c 40,-42 31,-48 -38,-23 -24,8 -45,14 -47,11 -7,-7 17,-98 36,-134 26,-50 79,-99 137,-128 l 49,-23 -58,-1 c -56,0 -58,-1 -52,-22 20,-65 99,-134 187,-164 l 62,-21 -54,-32 C 280,165 186,139 92,137 47,136 10,132 10,129 10,119 132,63 203,41 416,-24 669,4 859,115 c 135,79 270,236 333,388 34,81 68,229 68,300 0,46 3,52 59,107 33,32 64,67 70,77 10,19 9,19 -42,2 -85,-30 -97,-26 -55,19 31,32 68,90 68,107 0,3 -15,-2 -32,-11 -18,-10 -58,-25 -88,-34 l -54,-17 -49,33 c -27,18 -65,38 -85,44 -51,14 -129,12 -175,-4 z"
           id="path2991" />
      </g>
      <path
         inkscape:connector-curvature="0"
         id="path3051"
         d="M 371.49364,536.25056 413.74916,485.2427"
         style="fill:none;stroke:#37abc8;stroke-width:4.42496872;stroke-linecap:butt;stroke-linejoin:miter;stroke-opacity:1" />
      <path
         sodipodi:nodetypes="ccc"
         inkscape:connector-curvature="0"
         id="path3055"
         d="m 375.11991,535.04395 -3.15314,-3.10005 -41.39338,-40.69638"
         style="fill:#37abc8;stroke:#37abc8;stroke-width:6.93384266;stroke-linecap:butt;stroke-linejoin:miter;stroke-opacity:1" />
      <path
         transform="translate(282.07284,395.84327)"
         inkscape:connector-curvature="0"
         id="path3825"
         d="m 81.906634,123.11222 c -5.475699,-5.4629 -9.902536,-9.98582 -9.837416,-10.05094 0.06512,-0.0651 0.559078,0.0491 1.097686,0.25393 3.557798,1.35267 16.005701,1.98078 21.798348,1.09993 5.225688,-0.79464 12.425708,-2.87974 15.584468,-4.5132 0.59898,-0.30974 1.13499,-0.51114 1.19113,-0.44755 0.15703,0.17786 -19.073979,23.31211 -19.501909,23.46014 -0.20707,0.0716 -4.856609,-4.33942 -10.332307,-9.80231 z"
         style="fill:#37abc8;fill-opacity:1;stroke:#37abc8;stroke-width:1.42857146;stroke-opacity:1" />
    </g>
    <path
       style="fill:#37abc8;fill-opacity:1;stroke:#dbe3e2;stroke-width:0.75000000000000000;stroke-opacity:1"
       d="M 21.313203,40.018355 C 21.18968,39.971569 20.940694,39.737 19.54981,38.357063 18.788649,37.601893 16.327712,35.181353 14.08106,32.978084 9.6897952,28.671615 9.3187354,28.300043 8.7281017,27.617732 6.6633903,25.23254 5.4567906,22.533396 5.0337422,19.353513 4.9372258,18.628038 4.9231243,16.597203 5.0097551,15.898982 5.22385,14.173434 5.5994566,12.7819 6.2497138,11.305228 6.7362671,10.200311 7.4018221,9.0955076 8.215643,8.0418393 8.708787,7.4033572 10.012472,6.0874076 10.665881,5.5685511 c 2.314632,-1.8379938 4.944577,-2.9351609 7.879465,-3.2871748 0.64883,-0.077821 3.372475,-0.033999 3.973214,0.063927 3.443153,0.5612676 6.346766,2.0535364 8.706339,4.4744928 2.439891,2.5033643 3.856841,5.4846829 4.293904,9.0345429 0.07709,0.626136 0.07618,2.733141 -0.0014,3.348215 -0.27167,2.152571 -0.887696,4.081707 -1.843908,5.774347 -0.604057,1.069273 -1.323372,2.048322 -2.26133,3.077869 -0.295508,0.324361 -2.407554,2.849793 -4.693439,5.612069 -4.85281,5.864166 -5.28641,6.384545 -5.31619,6.380164 -0.01228,-0.0018 -0.05246,-0.0147 -0.08929,-0.02865 z"
       id="path3011"
       inkscape:connector-curvature="0"
       transform="translate(282.07284,497.45254)"
       sodipodi:nodetypes="csssssssssssscsssccc" />
    <path
       style="fill:#d5f6ff;fill-opacity:1;stroke:#ffd42a;stroke-width:0.08928572000000000;stroke-opacity:1"
       d="M 18.929274,29.733277 C 16.369397,29.392642 14.309865,28.479245 12.389096,26.832723 10.46826,25.186144 9.092714,22.933623 8.4792886,20.430232 8.2202123,19.372941 8.1531704,18.766049 8.1538035,17.483804 8.154417,16.241398 8.1940543,15.845978 8.4191961,14.83625 8.8143273,13.064147 9.7103855,11.170881 10.78967,9.8277174 11.243309,9.2631666 12.463638,8.0593901 12.947131,7.6995211 14.676908,6.4120298 16.38417,5.6909422 18.54981,5.3331465 c 0.751907,-0.1242262 2.773682,-0.1118015 3.556355,0.021855 2.023772,0.3455988 3.584186,0.9811741 5.170865,2.1061554 2.39822,1.7003765 4.075636,4.1962101 4.815839,7.1655041 0.250628,1.005385 0.294612,1.436324 0.293892,2.879464 -5.44e-4,1.09495 -0.01599,1.449036 -0.07884,1.808036 -0.331543,1.893643 -0.891457,3.397096 -1.787274,4.799107 -1.298708,2.032556 -3.022126,3.549349 -5.186266,4.564467 -1.256455,0.589357 -2.664763,0.964457 -3.983227,1.060925 -0.690562,0.05053 -2.023996,0.04756 -2.42188,-0.0054 l 0,0 z m -0.357143,-5.799695 c 1.657701,-0.125263 3.144948,-0.594082 4.352679,-1.372078 1.383034,-0.890924 2.770713,-2.528316 3.470958,-4.095558 0.451235,-1.009924 0.805853,-2.453994 0.87879,-3.578597 0.04324,-0.666685 0.02118,-0.627947 0.871379,-1.530493 0.537207,-0.570285 0.709181,-0.805839 0.63933,-0.875691 -0.01144,-0.01144 -0.284539,0.06119 -0.606884,0.161406 -0.322345,0.100214 -0.640526,0.175801 -0.707068,0.16797 -0.1201,-0.01413 -0.118924,-0.01669 0.160479,-0.349059 0.418235,-0.497518 0.698788,-0.926259 0.78144,-1.194196 0.04365,-0.141503 -0.03755,-0.130889 -0.452469,0.05915 -0.19165,0.08778 -0.614805,0.248011 -0.940343,0.356077 l -0.591887,0.196484 -0.412577,-0.271412 c -0.846403,-0.556805 -1.274249,-0.706675 -2.019719,-0.707487 -0.735695,-8.04e-4 -1.180834,0.114742 -1.744267,0.452757 -0.847298,0.50831 -1.401404,1.297727 -1.584489,2.257373 -0.03097,0.162348 -0.04487,0.492529 -0.03338,0.792851 l 0.0197,0.514644 -0.226104,-0.02668 c -2.412183,-0.284632 -4.090973,-1.113366 -6.036161,-2.979747 l -0.497557,-0.477399 -0.116123,0.324062 c -0.186875,0.52151 -0.249051,0.869894 -0.249051,1.395489 0,0.932499 0.219754,1.499569 0.890961,2.299108 0.342873,0.408428 0.310105,0.428941 -0.356566,0.223214 -0.248508,-0.07669 -0.495811,-0.13317 -0.549563,-0.125519 -0.08483,0.01208 -0.09571,0.03716 -0.08241,0.190058 0.02319,0.266631 0.245033,0.998656 0.402884,1.329403 0.258628,0.541905 0.873137,1.12452 1.601495,1.518374 l 0.390987,0.211423 -0.334822,0.0045 c -0.184152,0.0025 -0.435268,0.01785 -0.558035,0.03411 -0.286982,0.03802 -0.303645,0.122668 -0.104589,0.53131 0.106492,0.218618 0.251949,0.40645 0.527594,0.681297 0.444761,0.443474 0.886968,0.717905 1.54128,0.956511 0.245536,0.08954 0.484413,0.17819 0.530837,0.197001 0.0699,0.02832 0.03152,0.06549 -0.223214,0.216157 -1.109748,0.656397 -1.970439,0.914242 -3.332446,0.998333 -0.792038,0.0489 -0.92607,0.06786 -0.92607,0.130967 0,0.109049 1.151338,0.648488 2.001871,0.937943 0.597926,0.203485 1.181286,0.333918 1.792772,0.400843 0.892763,0.09771 1.074408,0.102182 1.830357,0.04506 l 0,0 z"
       id="path3781"
       inkscape:connector-curvature="0"
       transform="translate(282.07284,497.45254)" />
  </g>
</svg>
