<?xml version="1.0" encoding="UTF-8" standalone="no"?>
<!-- Created with Inkscape (http://www.inkscape.org/) -->

<svg
   xmlns:dc="http://purl.org/dc/elements/1.1/"
   xmlns:cc="http://creativecommons.org/ns#"
   xmlns:rdf="http://www.w3.org/1999/02/22-rdf-syntax-ns#"
   xmlns:svg="http://www.w3.org/2000/svg"
   xmlns="http://www.w3.org/2000/svg"
   xmlns:sodipodi="http://sodipodi.sourceforge.net/DTD/sodipodi-0.dtd"
   xmlns:inkscape="http://www.inkscape.org/namespaces/inkscape"
   width="40"
   height="40"
   id="svg2"
   version="1.1"
   inkscape:version="0.48.4 r9939"
   sodipodi:docname="twitter_mapMarker_white.svg">
  <defs
     id="defs4" />
  <sodipodi:namedview
     id="base"
     pagecolor="#ffffff"
     bordercolor="#666666"
     borderopacity="1.0"
     inkscape:pageopacity="0.0"
     inkscape:pageshadow="2"
     inkscape:zoom="2.8"
     inkscape:cx="144.38539"
     inkscape:cy="56.081232"
     inkscape:document-units="px"
     inkscape:current-layer="layer1"
     showgrid="false"
     inkscape:window-width="1505"
     inkscape:window-height="830"
     inkscape:window-x="342"
     inkscape:window-y="89"
     inkscape:window-maximized="0"
     fit-margin-top="0"
     fit-margin-left="0"
     fit-margin-right="0"
     fit-margin-bottom="0" />
  <metadata
     id="metadata7">
    <rdf:RDF>
      <cc:Work
         rdf:about="">
        <dc:format>image/svg+xml</dc:format>
        <dc:type
           rdf:resource="http://purl.org/dc/dcmitype/StillImage" />
        <dc:title></dc:title>
      </cc:Work>
    </rdf:RDF>
  </metadata>
  <g
     inkscape:label="Layer 1"
     inkscape:groupmode="layer"
     id="layer1"
     transform="translate(-282.07284,-497.45254)">
    <g
       id="g3936"
       transform="matrix(0.26797315,0,0,0.26797315,203.4712,393.49013)">
      <path
         transform="matrix(7.3225808,0,0,7.3225808,97.109026,283.70132)"
         d="m 44.951786,23.168882 c 0,4.323662 -3.50502,7.828682 -7.828682,7.828682 -4.323662,0 -7.828682,-3.50502 -7.828682,-7.828682 0,-4.323661 3.50502,-7.828682 7.828682,-7.828682 4.323662,0 7.828682,3.505021 7.828682,7.828682 z"
         sodipodi:ry="7.8286819"
         sodipodi:rx="7.8286819"
         sodipodi:cy="23.168882"
         sodipodi:cx="37.123104"
         id="path3012"
         style="fill:#37abc8;fill-opacity:1;stroke:none"
         sodipodi:type="arc" />
      <path
         transform="matrix(5.8184704,0,0,5.8869001,152.9896,316.89047)"
         d="m 44.951786,23.168882 c 0,4.323662 -3.50502,7.828682 -7.828682,7.828682 -4.323662,0 -7.828682,-3.50502 -7.828682,-7.828682 0,-4.323661 3.50502,-7.828682 7.828682,-7.828682 4.323662,0 7.828682,3.505021 7.828682,7.828682 z"
         sodipodi:ry="7.8286819"
         sodipodi:rx="7.8286819"
         sodipodi:cy="23.168882"
         sodipodi:cx="37.123104"
         id="path3012-1"
         style="fill:#ffffff;fill-opacity:1;stroke:none"
         sodipodi:type="arc" />
      <g
         style="fill:#00aced;fill-opacity:1;stroke:none"
         transform="matrix(0.0427048,0,0,-0.04293152,341.24479,477.58776)"
         id="g2989">
        <path
           style="fill:#00aced;fill-opacity:1"
           inkscape:connector-curvature="0"
           d="M 877,1126 C 752,1081 673,965 682,838 l 3,-49 -50,6 C 453,818 294,896 159,1027 l -66,65 -17,-48 C 40,937 63,824 138,748 c 40,-42 31,-48 -38,-23 -24,8 -45,14 -47,11 -7,-7 17,-98 36,-134 26,-50 79,-99 137,-128 l 49,-23 -58,-1 c -56,0 -58,-1 -52,-22 20,-65 99,-134 187,-164 l 62,-21 -54,-32 C 280,165 186,139 92,137 47,136 10,132 10,129 10,119 132,63 203,41 416,-24 669,4 859,115 c 135,79 270,236 333,388 34,81 68,229 68,300 0,46 3,52 59,107 33,32 64,67 70,77 10,19 9,19 -42,2 -85,-30 -97,-26 -55,19 31,32 68,90 68,107 0,3 -15,-2 -32,-11 -18,-10 -58,-25 -88,-34 l -54,-17 -49,33 c -27,18 -65,38 -85,44 -51,14 -129,12 -175,-4 z"
           id="path2991" />
      </g>
      <path
         inkscape:connector-curvature="0"
         id="path3051"
         d="M 371.49364,536.25056 413.74916,485.2427"
         style="fill:none;stroke:#37abc8;stroke-width:4.42496872;stroke-linecap:butt;stroke-linejoin:miter;stroke-opacity:1" />
      <path
         sodipodi:nodetypes="ccc"
         inkscape:connector-curvature="0"
         id="path3055"
         d="m 375.11991,535.04395 -3.15314,-3.10005 -41.39338,-40.69638"
         style="fill:#37abc8;stroke:#37abc8;stroke-width:6.93384266;stroke-linecap:butt;stroke-linejoin:miter;stroke-opacity:1" />
      <path
         transform="translate(282.07284,395.84327)"
         inkscape:connector-curvature="0"
         id="path3825"
         d="m 81.906634,123.11222 c -5.475699,-5.4629 -9.902536,-9.98582 -9.837416,-10.05094 0.06512,-0.0651 0.559078,0.0491 1.097686,0.25393 3.557798,1.35267 16.005701,1.98078 21.798348,1.09993 5.225688,-0.79464 12.425708,-2.87974 15.584468,-4.5132 0.59898,-0.30974 1.13499,-0.51114 1.19113,-0.44755 0.15703,0.17786 -19.073979,23.31211 -19.501909,23.46014 -0.20707,0.0716 -4.856609,-4.33942 -10.332307,-9.80231 z"
         style="fill:#37abc8;fill-opacity:1;stroke:#37abc8;stroke-width:1.42857146;stroke-opacity:1" />
    </g>
  </g>
</svg>
