<?xml version="1.0" encoding="UTF-8" standalone="no"?>
<!-- Created with Inkscape (http://www.inkscape.org/) -->

<svg
   xmlns:dc="http://purl.org/dc/elements/1.1/"
   xmlns:cc="http://creativecommons.org/ns#"
   xmlns:rdf="http://www.w3.org/1999/02/22-rdf-syntax-ns#"
   xmlns:svg="http://www.w3.org/2000/svg"
   xmlns="http://www.w3.org/2000/svg"
   xmlns:sodipodi="http://sodipodi.sourceforge.net/DTD/sodipodi-0.dtd"
   xmlns:inkscape="http://www.inkscape.org/namespaces/inkscape"
   width="40"
   height="40"
   id="svg2"
   version="1.1"
   inkscape:version="0.48.4 r9939"
   sodipodi:docname="twitter_mapMarker_white.svg">
  <defs
     id="defs4" />
  <sodipodi:namedview
     id="base"
     pagecolor="#ffffff"
     bordercolor="#666666"
     borderopacity="1.0"
     inkscape:pageopacity="0.0"
     inkscape:pageshadow="2"
     inkscape:zoom="22.4"
     inkscape:cx="17.697131"
     inkscape:cy="20.234946"
     inkscape:document-units="px"
     inkscape:current-layer="layer1"
     showgrid="false"
     inkscape:window-width="1505"
     inkscape:window-height="830"
     inkscape:window-x="342"
     inkscape:window-y="89"
     inkscape:window-maximized="0"
     fit-margin-top="0"
     fit-margin-left="0"
     fit-margin-right="0"
     fit-margin-bottom="0" />
  <metadata
     id="metadata7">
    <rdf:RDF>
      <cc:Work
         rdf:about="">
        <dc:format>image/svg+xml</dc:format>
        <dc:type
           rdf:resource="http://purl.org/dc/dcmitype/StillImage" />
        <dc:title></dc:title>
      </cc:Work>
    </rdf:RDF>
  </metadata>
  <g
     inkscape:label="Layer 1"
     inkscape:groupmode="layer"
     id="layer1"
     transform="translate(-282.07284,-497.45254)">
    <g
       id="g3936"
       transform="matrix(0.26797315,0,0,0.26797315,203.4712,393.49013)">
      <path
         transform="matrix(7.3225808,0,0,7.3225808,97.109026,283.70132)"
         d="m 44.951786,23.168882 c 0,4.323662 -3.50502,7.828682 -7.828682,7.828682 -4.323662,0 -7.828682,-3.50502 -7.828682,-7.828682 0,-4.323661 3.50502,-7.828682 7.828682,-7.828682 4.323662,0 7.828682,3.505021 7.828682,7.828682 z"
         sodipodi:ry="7.8286819"
         sodipodi:rx="7.8286819"
         sodipodi:cy="23.168882"
         sodipodi:cx="37.123104"
         id="path3012"
         style="fill:#37abc8;fill-opacity:1;stroke:none"
         sodipodi:type="arc" />
      <path
         transform="matrix(5.8184704,0,0,5.8869001,152.9896,316.89047)"
         d="m 44.951786,23.168882 c 0,4.323662 -3.50502,7.828682 -7.828682,7.828682 -4.323662,0 -7.828682,-3.50502 -7.828682,-7.828682 0,-4.323661 3.50502,-7.828682 7.828682,-7.828682 4.323662,0 7.828682,3.505021 7.828682,7.828682 z"
         sodipodi:ry="7.8286819"
         sodipodi:rx="7.8286819"
         sodipodi:cy="23.168882"
         sodipodi:cx="37.123104"
         id="path3012-1"
         style="fill:#ffffff;fill-opacity:1;stroke:none"
         sodipodi:type="arc" />
      <g
         style="fill:#00aced;fill-opacity:1;stroke:none"
         transform="matrix(0.0427048,0,0,-0.04293152,341.24479,477.58776)"
         id="g2989">
        <path
           style="fill:#00aced;fill-opacity:1"
           inkscape:connector-curvature="0"
           d="M 877,1126 C 752,1081 673,965 682,838 l 3,-49 -50,6 C 453,818 294,896 159,1027 l -66,65 -17,-48 C 40,937 63,824 138,748 c 40,-42 31,-48 -38,-23 -24,8 -45,14 -47,11 -7,-7 17,-98 36,-134 26,-50 79,-99 137,-128 l 49,-23 -58,-1 c -56,0 -58,-1 -52,-22 20,-65 99,-134 187,-164 l 62,-21 -54,-32 C 280,165 186,139 92,137 47,136 10,132 10,129 10,119 132,63 203,41 416,-24 669,4 859,115 c 135,79 270,236 333,388 34,81 68,229 68,300 0,46 3,52 59,107 33,32 64,67 70,77 10,19 9,19 -42,2 -85,-30 -97,-26 -55,19 31,32 68,90 68,107 0,3 -15,-2 -32,-11 -18,-10 -58,-25 -88,-34 l -54,-17 -49,33 c -27,18 -65,38 -85,44 -51,14 -129,12 -175,-4 z"
           id="path2991" />
      </g>
      <path
         inkscape:connector-curvature="0"
         id="path3051"
         d="M 371.49364,536.25056 413.74916,485.2427"
         style="fill:none;stroke:#37abc8;stroke-width:4.42496872;stroke-linecap:butt;stroke-linejoin:miter;stroke-opacity:1" />
      <path
         sodipodi:nodetypes="ccc"
         inkscape:connector-curvature="0"
         id="path3055"
         d="m 375.11991,535.04395 -3.15314,-3.10005 -41.39338,-40.69638"
         style="fill:#37abc8;stroke:#37abc8;stroke-width:6.93384266;stroke-linecap:butt;stroke-linejoin:miter;stroke-opacity:1" />
      <path
         transform="translate(282.07284,395.84327)"
         inkscape:connector-curvature="0"
         id="path3825"
         d="m 81.906634,123.11222 c -5.475699,-5.4629 -9.902536,-9.98582 -9.837416,-10.05094 0.06512,-0.0651 0.559078,0.0491 1.097686,0.25393 3.557798,1.35267 16.005701,1.98078 21.798348,1.09993 5.225688,-0.79464 12.425708,-2.87974 15.584468,-4.5132 0.59898,-0.30974 1.13499,-0.51114 1.19113,-0.44755 0.15703,0.17786 -19.073979,23.31211 -19.501909,23.46014 -0.20707,0.0716 -4.856609,-4.33942 -10.332307,-9.80231 z"
         style="fill:#37abc8;fill-opacity:1;stroke:#37abc8;stroke-width:1.42857146;stroke-opacity:1" />
    </g>
    <path
       style="fill:#ffe680;fill-opacity:1;stroke:#ffe680;stroke-width:0.08928572000000000;stroke-opacity:1"
       d="M 21.313203,40.018355 C 21.18968,39.971569 20.940694,39.737 19.54981,38.357063 18.788649,37.601893 16.327712,35.181353 14.08106,32.978084 9.6897952,28.671615 9.3187354,28.300043 8.7281017,27.617732 6.6633903,25.23254 5.4567906,22.533396 5.0337422,19.353513 4.9372258,18.628038 4.9231243,16.597203 5.0097551,15.898982 5.22385,14.173434 5.5994566,12.7819 6.2497138,11.305228 6.7362671,10.200311 7.4018221,9.0955076 8.215643,8.0418393 8.708787,7.4033572 10.012472,6.0874076 10.665881,5.5685511 c 2.314632,-1.8379938 4.944577,-2.9351609 7.879465,-3.2871748 0.64883,-0.077821 3.372475,-0.033999 3.973214,0.063927 3.443153,0.5612676 6.346766,2.0535364 8.706339,4.4744928 2.439891,2.5033643 3.856841,5.4846829 4.293904,9.0345429 0.07709,0.626136 0.07618,2.733141 -0.0014,3.348215 -0.27167,2.152571 -0.887696,4.081707 -1.843908,5.774347 -0.604057,1.069273 -1.323372,2.048322 -2.26133,3.077869 -0.295508,0.324361 -2.407554,2.849793 -4.693439,5.612069 -4.85281,5.864166 -5.28641,6.384545 -5.31619,6.380164 -0.01228,-0.0018 -0.05246,-0.0147 -0.08929,-0.02865 z m 0.608972,-10.253934 c 1.470523,-0.218396 2.69055,-0.607984 3.944599,-1.259622 1.993409,-1.035828 3.657831,-2.598821 4.844881,-4.549636 0.911903,-1.498634 1.513741,-3.27818 1.720556,-5.087431 0.07206,-0.630379 0.0722,-2.090894 2.68e-4,-2.723214 C 32.041235,12.705351 30.266694,9.5855054 27.550639,7.5616848 25.515566,6.045286 23.20361,5.2367527 20.665881,5.1539583 18.066751,5.0691607 15.602726,5.7805844 13.479431,7.2288607 12.717389,7.748642 12.415598,8.0021697 11.66658,8.7517951 10.615547,9.8036804 9.9920894,10.678266 9.3244166,12.037375 7.8496704,15.039356 7.6528089,18.456494 8.768891,21.680232 c 0.2295607,0.663073 0.8315064,1.901369 1.2210685,2.511929 1.4636695,2.294003 3.7394195,4.113638 6.2390715,4.988611 0.898767,0.314602 2.184469,0.590037 3.097565,0.663587 0.462535,0.03726 2.158071,-0.01496 2.595579,-0.07994 l 0,0 z"
       id="path3011"
       inkscape:connector-curvature="0"
       transform="translate(282.07284,497.45254)" />
  </g>
</svg>
